<svg width="312" height="85" viewBox="0 0 312 85" fill="none" xmlns="http://www.w3.org/2000/svg">
<path opacity="0.8" d="M149 0H311V25H149V0Z" fill="#009EE0"/>
<path opacity="0.8" d="M0 58H154V83H0V58Z" fill="#E30016"/>
<path d="M44.3864 14H0V63H12.4773V23.4746H31.9091V63H44.3864V14Z" fill="black"/>
<path d="M54.1918 63H66.848V47.7832H75.4389C87.4304 47.7832 94.9219 41.1318 94.9219 30.9634C94.9219 20.8906 87.5838 14 75.8224 14H54.1918V63ZM66.848 38.4521V23.5464H73.0866C78.7628 23.5464 81.8054 26.4175 81.8054 30.9634C81.8054 35.4854 78.7628 38.4521 73.0866 38.4521H66.848Z" fill="black"/>
<path d="M224.168 18.6052C211.358 18.6052 202 26.0411 202 37.7486C202 49.1172 211.205 56.2366 224.168 56.2366H224.628V62H236.517V56.2366H237.028C249.915 56.2366 259.119 49.0268 259.119 37.8164C259.119 26.0863 249.915 18.6052 237.028 18.6052H236.517V13H224.628V18.6052H224.168ZM224.168 27.8492H224.628V46.9926H224.168C218.287 46.9926 213.582 44.2126 213.582 37.7486C213.582 30.8552 218.134 27.8492 224.168 27.8492ZM236.517 27.8492H237.105C243.063 27.8492 247.46 30.923 247.46 37.8164C247.46 44.0544 243.063 46.9926 237.105 46.9926H236.517V27.8492Z" fill="black"/>
<path d="M266.477 13.8137V60.1015H277.215L298.053 33.3865H298.386V60.1015H311.042V13.8137H300.15L279.542 40.4834H279.107V13.8137H266.477Z" fill="black"/>
<path fill-rule="evenodd" clip-rule="evenodd" d="M145.481 0C168.386 0 186.962 18.5753 186.962 41.4806C186.962 64.3859 168.386 82.9612 145.481 82.9612C122.576 82.9612 104 64.3859 104 41.4806C104 18.5753 122.576 0 145.481 0Z" fill="#E30016"/>
<path fill-rule="evenodd" clip-rule="evenodd" d="M149.981 1.63631C172.886 1.63631 191.461 20.212 191.461 43.1173C191.461 66.0226 172.886 84.5979 149.981 84.5979C127.076 84.5979 108.5 66.0226 108.5 43.1173C108.5 20.212 127.076 1.63631 149.981 1.63631Z" fill="white"/>
<path fill-rule="evenodd" clip-rule="evenodd" d="M146.099 11.6217C162.711 11.6217 176.183 25.0937 176.183 41.7056C176.183 58.3176 162.711 71.7892 146.099 71.7892C129.487 71.7892 116.015 58.3176 116.015 41.7056C116.015 25.0937 129.487 11.6217 146.099 11.6217Z" fill="#E30016"/>
<path fill-rule="evenodd" clip-rule="evenodd" d="M149.362 12.8085C165.974 12.8085 179.446 26.2805 179.446 42.8925C179.446 59.5044 165.974 72.9764 149.362 72.9764C132.75 72.9764 119.278 59.5044 119.278 42.8925C119.278 26.2805 132.75 12.8085 149.362 12.8085Z" fill="white"/>
<path fill-rule="evenodd" clip-rule="evenodd" d="M146.709 23.0987C157.106 23.0987 165.538 31.5306 165.538 41.9273C165.538 52.3245 157.106 60.7563 146.709 60.7563C136.312 60.7563 127.88 52.3245 127.88 41.9273C127.88 31.5306 136.312 23.0987 146.709 23.0987Z" fill="#E30016"/>
<path fill-rule="evenodd" clip-rule="evenodd" d="M148.752 23.8417C159.149 23.8417 167.581 32.2735 167.581 42.6707C167.581 53.0674 159.149 61.4993 148.752 61.4993C138.355 61.4993 129.923 53.0674 129.923 42.6707C129.923 32.2735 138.355 23.8417 148.752 23.8417Z" fill="white"/>
<path fill-rule="evenodd" clip-rule="evenodd" d="M151.519 84.5981C145.693 84.5981 140.148 83.3946 135.117 81.2254C138.887 82.3532 142.881 82.9615 147.018 82.9615C169.924 82.9615 188.499 64.3859 188.499 41.4806C188.499 24.4038 178.173 9.73585 163.426 3.37595C180.529 8.49503 193 24.3511 193 43.1173C193 66.0226 174.424 84.5981 151.519 84.5981Z" fill="#009EE0"/>
<path fill-rule="evenodd" clip-rule="evenodd" d="M150.901 72.9762C146.676 72.9762 142.656 72.1034 139.007 70.5309C141.741 71.349 144.637 71.7894 147.637 71.7894C164.249 71.7894 177.72 58.3175 177.72 41.7057C177.72 29.3191 170.229 18.6807 159.533 14.0689C171.938 17.7806 180.985 29.2811 180.985 42.8923C180.985 59.5045 167.513 72.9762 150.901 72.9762Z" fill="#009EE0"/>
<path fill-rule="evenodd" clip-rule="evenodd" d="M150.292 61.4992C147.648 61.4992 145.132 60.9533 142.849 59.9694C144.56 60.4813 146.372 60.7563 148.249 60.7563C158.646 60.7563 167.077 52.3245 167.077 41.9276C167.077 34.1771 162.391 27.5196 155.698 24.632C163.46 26.9566 169.12 34.1532 169.12 42.6705C169.12 53.0674 160.689 61.4992 150.292 61.4992Z" fill="#009EE0"/>
</svg>
