<svg width="770" height="710" viewBox="0 0 770 710" fill="none" xmlns="http://www.w3.org/2000/svg">
<path d="M374 707C568.404 707 726 549.404 726 355C726 160.596 568.404 3 374 3C179.596 3 22 160.596 22 355C22 549.404 179.596 707 374 707Z" stroke="#FF5E3A" stroke-width="6"/>
<path d="M126 119C135.389 119 143 111.389 143 102C143 92.6112 135.389 85 126 85C116.611 85 109 92.6112 109 102C109 111.389 116.611 119 126 119Z" fill="#F2F2F2" stroke="#0093DD" stroke-width="2"/>
<path d="M621.5 119.5C630.889 119.5 638.5 111.889 638.5 102.5C638.5 93.1112 630.889 85.5 621.5 85.5C612.111 85.5 604.5 93.1112 604.5 102.5C604.5 111.889 612.111 119.5 621.5 119.5Z" fill="#F2F2F2" stroke="#0093DD" stroke-width="2"/>
<path d="M726 355C735.389 355 743 347.389 743 338C743 328.611 735.389 321 726 321C716.611 321 709 328.611 709 338C709 347.389 716.611 355 726 355Z" fill="#F2F2F2" stroke="#0093DD" stroke-width="2"/>
<path d="M19.5 354.5C28.8888 354.5 36.5 346.889 36.5 337.5C36.5 328.111 28.8888 320.5 19.5 320.5C10.1112 320.5 2.5 328.111 2.5 337.5C2.5 346.889 10.1112 354.5 19.5 354.5Z" fill="#F2F2F2" stroke="#0093DD" stroke-width="2"/>
<path d="M621 628C630.389 628 638 620.389 638 611C638 601.611 630.389 594 621 594C611.611 594 604 601.611 604 611C604 620.389 611.611 628 621 628Z" fill="#F2F2F2" stroke="#0093DD" stroke-width="2"/>
<path d="M132.5 628.5C141.889 628.5 149.5 620.889 149.5 611.5C149.5 602.111 141.889 594.5 132.5 594.5C123.111 594.5 115.5 602.111 115.5 611.5C115.5 620.889 123.111 628.5 132.5 628.5Z" fill="#F2F2F2" stroke="#0093DD" stroke-width="2"/>
</svg>
