<svg width="65" height="62" viewBox="0 0 65 62" fill="none" xmlns="http://www.w3.org/2000/svg">
<path fill-rule="evenodd" clip-rule="evenodd" d="M29.9503 0C46.4882 0 59.9003 13.4118 59.9003 29.95C59.9003 46.4882 46.4882 59.9 29.9503 59.9C13.4121 59.9 0 46.4882 0 29.95C0 13.4118 13.4121 0 29.9503 0Z" fill="#E30016"/>
<path fill-rule="evenodd" clip-rule="evenodd" d="M33.1998 1.1814C49.738 1.1814 63.1499 14.5935 63.1499 31.1317C63.1499 47.6698 49.738 61.0817 33.1998 61.0817C16.6617 61.0817 3.24951 47.6698 3.24951 31.1317C3.24951 14.5935 16.6617 1.1814 33.1998 1.1814Z" fill="white"/>
<path fill-rule="evenodd" clip-rule="evenodd" d="M30.3964 8.39111C42.3906 8.39111 52.1177 18.1182 52.1177 30.1124C52.1177 42.1067 42.3906 51.8335 30.3964 51.8335C18.4024 51.8335 8.67529 42.1067 8.67529 30.1124C8.67529 18.1182 18.4024 8.39111 30.3964 8.39111Z" fill="#E30016"/>
<path fill-rule="evenodd" clip-rule="evenodd" d="M32.7535 9.24805C44.7477 9.24805 54.4745 18.9751 54.4745 30.9693C54.4745 42.9636 44.7477 52.6907 32.7535 52.6907C20.7592 52.6907 11.0322 42.9636 11.0322 30.9693C11.0322 18.9751 20.7592 9.24805 32.7535 9.24805Z" fill="white"/>
<path fill-rule="evenodd" clip-rule="evenodd" d="M30.8376 16.678C38.3444 16.678 44.4323 22.766 44.4323 30.2727C44.4323 37.7797 38.3444 43.8676 30.8376 43.8676C23.3307 43.8676 17.2427 37.7797 17.2427 30.2727C17.2427 22.766 23.3307 16.678 30.8376 16.678Z" fill="#E30016"/>
<path fill-rule="evenodd" clip-rule="evenodd" d="M32.3128 17.2144C39.8195 17.2144 45.9075 23.3023 45.9075 30.8093C45.9075 38.316 39.8195 44.4041 32.3128 44.4041C24.8058 44.4041 18.7178 38.316 18.7178 30.8093C18.7178 23.3023 24.8058 17.2144 32.3128 17.2144Z" fill="white"/>
<path fill-rule="evenodd" clip-rule="evenodd" d="M34.3108 61.0818C30.1041 61.0818 26.1007 60.2129 22.4678 58.6467C25.1903 59.461 28.0739 59.9001 31.0611 59.9001C47.5992 59.9001 61.0112 46.4881 61.0112 29.95C61.0112 17.6201 53.5553 7.0295 42.908 2.4375C55.2566 6.1336 64.2609 17.5821 64.2609 31.1317C64.2609 47.6698 50.8489 61.0818 34.3108 61.0818Z" fill="#009EE0"/>
<path fill-rule="evenodd" clip-rule="evenodd" d="M33.8641 52.6905C30.8137 52.6905 27.9109 52.0604 25.2764 50.925C27.2504 51.5156 29.3414 51.8337 31.5073 51.8337C43.5015 51.8337 53.2285 42.1066 53.2285 30.1124C53.2285 21.1691 47.8196 13.4878 40.0966 10.158C49.0537 12.8379 55.5854 21.1417 55.5854 30.9693C55.5854 42.9637 45.8583 52.6905 33.8641 52.6905Z" fill="#009EE0"/>
<path fill-rule="evenodd" clip-rule="evenodd" d="M33.4234 44.4039C31.5145 44.4039 29.6981 44.0097 28.0493 43.2992C29.2848 43.6689 30.5929 43.8675 31.9485 43.8675C39.4552 43.8675 45.5431 37.7794 45.5431 30.2727C45.5431 24.6767 42.1593 19.8698 37.3271 17.7849C42.9314 19.4633 47.0182 24.6594 47.0182 30.8091C47.0182 38.3159 40.9304 44.4039 33.4234 44.4039Z" fill="#009EE0"/>
</svg>
